<svg xmlns="http://www.w3.org/2000/svg" xmlns:xlink="http://www.w3.org/1999/xlink" width="1080" zoomAndPan="magnify" viewBox="0 0 810 809.999993" height="1080" preserveAspectRatio="xMidYMid meet" version="1.0"><defs><clipPath id="6a8f77c9b7"><path d="M 115.195312 158.316406 L 495 158.316406 L 495 646 L 115.195312 646 Z M 115.195312 158.316406 " clip-rule="nonzero"/></clipPath><clipPath id="465ccf2acf"><path d="M 568 535 L 690.019531 535 L 690.019531 647.246094 L 568 647.246094 Z M 568 535 " clip-rule="nonzero"/></clipPath></defs><g clip-path="url(#6a8f77c9b7)"><path fill="#ffffff" d="M 402.609375 158.316406 L 115.195312 645.824219 L 180.257812 645.824219 L 391.167969 279.128906 L 428.347656 328.875 L 243.171875 645.824219 L 305.375 645.824219 L 494.835938 319.636719 Z M 402.609375 158.316406 " fill-opacity="1" fill-rule="nonzero"/></g><path fill="#ffffff" d="M 523.433594 371.511719 L 364.714844 645.824219 L 553.464844 645.824219 L 618.523438 540.648438 L 585.636719 480.246094 L 523.433594 588.972656 L 461.234375 588.972656 L 553.464844 424.101562 Z M 523.433594 371.511719 " fill-opacity="1" fill-rule="nonzero"/><path fill="#ffffff" d="M 605.65625 645.824219 L 645.527344 573.339844 L 688.589844 645.824219 Z M 605.65625 645.824219 " fill-opacity="1" fill-rule="nonzero"/><g clip-path="url(#465ccf2acf)"><path stroke-linecap="butt" transform="matrix(6.607152, 0, 0, 6.607152, 115.197106, -859.184169)" fill="none" stroke-linejoin="miter" d="M 74.23155 227.784733 L 80.266085 216.81414 L 86.783644 227.784733 Z M 74.23155 227.784733 " stroke="#fefdfc" stroke-width="1" stroke-opacity="1" stroke-miterlimit="4"/></g></svg>