<svg width="38" height="38" viewBox="0 0 38 38" fill="none" xmlns="http://www.w3.org/2000/svg">
<path d="M32.3085 5.52187C28.7545 1.95937 24.0214 0 18.9915 0C8.60937 0 0.161161 8.44821 0.161161 18.8304C0.161161 22.1469 1.02634 25.3871 2.67187 28.2455L0 38L9.98348 35.379C12.7317 36.8804 15.8277 37.6692 18.983 37.6692H18.9915C29.3652 37.6692 38 29.221 38 18.8388C38 13.8089 35.8625 9.08437 32.3085 5.52187ZM18.9915 34.4969C16.1754 34.4969 13.4187 33.742 11.0183 32.317L10.45 31.9777L4.52946 33.5299L6.10714 27.7536L5.73393 27.1598C4.16473 24.6661 3.34196 21.7906 3.34196 18.8304C3.34196 10.204 10.3652 3.1808 19 3.1808C23.1817 3.1808 27.1089 4.80937 30.0607 7.76964C33.0125 10.7299 34.8277 14.6571 34.8192 18.8388C34.8192 27.4737 27.6179 34.4969 18.9915 34.4969ZM27.5754 22.7746C27.1089 22.5371 24.7933 21.4004 24.3607 21.2478C23.9281 21.0866 23.6143 21.0103 23.3004 21.4853C22.9866 21.9603 22.0875 23.0121 21.8076 23.3344C21.5362 23.6482 21.2562 23.6906 20.7897 23.4531C18.0246 22.0705 16.2094 20.9848 14.3857 17.8549C13.9022 17.0237 14.8692 17.083 15.7683 15.2848C15.921 14.971 15.8446 14.6996 15.7259 14.4621C15.6071 14.2246 14.6656 11.9089 14.2754 10.9674C13.8937 10.0513 13.5036 10.1786 13.2152 10.1616C12.9437 10.1446 12.6299 10.1446 12.3161 10.1446C12.0022 10.1446 11.4933 10.2634 11.0607 10.7299C10.6281 11.2049 9.41518 12.3415 9.41518 14.6571C9.41518 16.9728 11.1031 19.2121 11.3321 19.5259C11.5696 19.8397 14.6487 24.5897 19.3732 26.6339C22.3589 27.9232 23.5295 28.0335 25.0223 27.8129C25.9299 27.6772 27.8045 26.6763 28.1946 25.5737C28.5848 24.471 28.5848 23.5295 28.4661 23.3344C28.3558 23.1223 28.042 23.0036 27.5754 22.7746Z" fill="white"/>
</svg>
